<svg width="312" height="310" xmlns="http://www.w3.org/2000/svg" xmlns:xlink="http://www.w3.org/1999/xlink" xml:space="preserve" overflow="hidden"><defs><clipPath id="clip0"><rect x="484" y="32" width="312" height="310"/></clipPath><clipPath id="clip1"><rect x="484" y="32" width="312" height="310"/></clipPath><clipPath id="clip2"><rect x="485" y="32" width="310" height="310"/></clipPath><clipPath id="clip3"><rect x="485" y="32" width="310" height="311"/></clipPath><clipPath id="clip4"><rect x="485" y="32" width="310" height="311"/></clipPath><linearGradient x1="729.268" y1="74.0634" x2="682.172" y2="163.109" gradientUnits="userSpaceOnUse" spreadMethod="pad" id="fill5"><stop offset="0" stop-color="#5B3A0A" stop-opacity="1"/><stop offset="0.071" stop-color="#704F1B" stop-opacity="1"/><stop offset="0.143" stop-color="#86652D" stop-opacity="1"/><stop offset="0.214" stop-color="#9C7D3F" stop-opacity="1"/><stop offset="0.286" stop-color="#B29551" stop-opacity="1"/><stop offset="0.357" stop-color="#C8AD65" stop-opacity="1"/><stop offset="0.429" stop-color="#DDC77A" stop-opacity="1"/><stop offset="0.5" stop-color="#F3E18F" stop-opacity="1"/><stop offset="0.571" stop-color="#DDC77A" stop-opacity="0.998597"/><stop offset="0.643" stop-color="#C8AD65" stop-opacity="0.998673"/><stop offset="0.714" stop-color="#B29551" stop-opacity="1"/><stop offset="0.786" stop-color="#9C7D3F" stop-opacity="1"/><stop offset="0.857" stop-color="#86652D" stop-opacity="1"/><stop offset="0.929" stop-color="#704F1B" stop-opacity="1"/><stop offset="1" stop-color="#5B3A0A" stop-opacity="1"/></linearGradient><linearGradient x1="681.796" y1="289.493" x2="749.209" y2="216.226" gradientUnits="userSpaceOnUse" spreadMethod="pad" id="fill6"><stop offset="0" stop-color="#5B3A0A" stop-opacity="1"/><stop offset="0.071" stop-color="#704F1B" stop-opacity="1"/><stop offset="0.143" stop-color="#86652D" stop-opacity="1"/><stop offset="0.214" stop-color="#9C7D3F" stop-opacity="1"/><stop offset="0.286" stop-color="#B29551" stop-opacity="1"/><stop offset="0.357" stop-color="#C8AD65" stop-opacity="1"/><stop offset="0.429" stop-color="#DDC77A" stop-opacity="1"/><stop offset="0.5" stop-color="#F3E18F" stop-opacity="1"/><stop offset="0.571" stop-color="#DDC77A" stop-opacity="0.998597"/><stop offset="0.643" stop-color="#C8AD65" stop-opacity="0.998673"/><stop offset="0.714" stop-color="#B29551" stop-opacity="1"/><stop offset="0.786" stop-color="#9C7D3F" stop-opacity="1"/><stop offset="0.857" stop-color="#86652D" stop-opacity="1"/><stop offset="0.929" stop-color="#704F1B" stop-opacity="1"/><stop offset="1" stop-color="#5B3A0A" stop-opacity="1"/></linearGradient><linearGradient x1="530.815" y1="305.4" x2="620.835" y2="211.322" gradientUnits="userSpaceOnUse" spreadMethod="pad" id="fill7"><stop offset="0" stop-color="#5B3A0A" stop-opacity="1"/><stop offset="0.071" stop-color="#704F1B" stop-opacity="1"/><stop offset="0.143" stop-color="#86652D" stop-opacity="1"/><stop offset="0.214" stop-color="#9C7D3F" stop-opacity="1"/><stop offset="0.286" stop-color="#B29551" stop-opacity="1"/><stop offset="0.357" stop-color="#C8AD65" stop-opacity="1"/><stop offset="0.429" stop-color="#DDC77A" stop-opacity="1"/><stop offset="0.5" stop-color="#F3E18F" stop-opacity="1"/><stop offset="0.571" stop-color="#DDC77A" stop-opacity="0.998597"/><stop offset="0.643" stop-color="#C8AD65" stop-opacity="0.998673"/><stop offset="0.714" stop-color="#B29551" stop-opacity="1"/><stop offset="0.786" stop-color="#9C7D3F" stop-opacity="1"/><stop offset="0.857" stop-color="#86652D" stop-opacity="1"/><stop offset="0.929" stop-color="#704F1B" stop-opacity="1"/><stop offset="1" stop-color="#5B3A0A" stop-opacity="1"/></linearGradient><linearGradient x1="540.887" y1="161.391" x2="596.723" y2="82.3505" gradientUnits="userSpaceOnUse" spreadMethod="pad" id="fill8"><stop offset="0" stop-color="#5B3A0A" stop-opacity="1"/><stop offset="0.071" stop-color="#704F1B" stop-opacity="1"/><stop offset="0.143" stop-color="#86652D" stop-opacity="1"/><stop offset="0.214" stop-color="#9C7D3F" stop-opacity="1"/><stop offset="0.286" stop-color="#B29551" stop-opacity="1"/><stop offset="0.357" stop-color="#C8AD65" stop-opacity="1"/><stop offset="0.429" stop-color="#DDC77A" stop-opacity="1"/><stop offset="0.5" stop-color="#F3E18F" stop-opacity="1"/><stop offset="0.571" stop-color="#DDC77A" stop-opacity="0.998597"/><stop offset="0.643" stop-color="#C8AD65" stop-opacity="0.998673"/><stop offset="0.714" stop-color="#B29551" stop-opacity="1"/><stop offset="0.786" stop-color="#9C7D3F" stop-opacity="1"/><stop offset="0.857" stop-color="#86652D" stop-opacity="1"/><stop offset="0.929" stop-color="#704F1B" stop-opacity="1"/><stop offset="1" stop-color="#5B3A0A" stop-opacity="1"/></linearGradient><linearGradient x1="594.061" y1="333.69" x2="729.027" y2="237.44" gradientUnits="userSpaceOnUse" spreadMethod="pad" id="fill9"><stop offset="0" stop-color="#5B3A0A" stop-opacity="1"/><stop offset="0.071" stop-color="#704F1B" stop-opacity="1"/><stop offset="0.143" stop-color="#86652D" stop-opacity="1"/><stop offset="0.214" stop-color="#9C7D3F" stop-opacity="1"/><stop offset="0.286" stop-color="#B29551" stop-opacity="1"/><stop offset="0.357" stop-color="#C8AD65" stop-opacity="1"/><stop offset="0.429" stop-color="#DDC77A" stop-opacity="1"/><stop offset="0.5" stop-color="#F3E18F" stop-opacity="1"/><stop offset="0.571" stop-color="#DDC77A" stop-opacity="0.998597"/><stop offset="0.643" stop-color="#C8AD65" stop-opacity="0.998673"/><stop offset="0.714" stop-color="#B29551" stop-opacity="1"/><stop offset="0.786" stop-color="#9C7D3F" stop-opacity="1"/><stop offset="0.857" stop-color="#86652D" stop-opacity="1"/><stop offset="0.929" stop-color="#704F1B" stop-opacity="1"/><stop offset="1" stop-color="#5B3A0A" stop-opacity="1"/></linearGradient><linearGradient x1="511.968" y1="237.06" x2="579.214" y2="130.062" gradientUnits="userSpaceOnUse" spreadMethod="pad" id="fill10"><stop offset="0" stop-color="#5B3A0A" stop-opacity="1"/><stop offset="0.071" stop-color="#704F1B" stop-opacity="1"/><stop offset="0.143" stop-color="#86652D" stop-opacity="1"/><stop offset="0.214" stop-color="#9C7D3F" stop-opacity="1"/><stop offset="0.286" stop-color="#B29551" stop-opacity="1"/><stop offset="0.357" stop-color="#C8AD65" stop-opacity="1"/><stop offset="0.429" stop-color="#DDC77A" stop-opacity="1"/><stop offset="0.5" stop-color="#F3E18F" stop-opacity="1"/><stop offset="0.571" stop-color="#DDC77A" stop-opacity="0.998597"/><stop offset="0.643" stop-color="#C8AD65" stop-opacity="0.998673"/><stop offset="0.714" stop-color="#B29551" stop-opacity="1"/><stop offset="0.786" stop-color="#9C7D3F" stop-opacity="1"/><stop offset="0.857" stop-color="#86652D" stop-opacity="1"/><stop offset="0.929" stop-color="#704F1B" stop-opacity="1"/><stop offset="1" stop-color="#5B3A0A" stop-opacity="1"/></linearGradient><linearGradient x1="705.078" y1="-10.9943" x2="568.979" y2="157.631" gradientUnits="userSpaceOnUse" spreadMethod="pad" id="fill11"><stop offset="0" stop-color="#5B3A0A" stop-opacity="1"/><stop offset="0.071" stop-color="#704F1B" stop-opacity="1"/><stop offset="0.143" stop-color="#86652D" stop-opacity="1"/><stop offset="0.214" stop-color="#9C7D3F" stop-opacity="1"/><stop offset="0.286" stop-color="#B29551" stop-opacity="1"/><stop offset="0.357" stop-color="#C8AD65" stop-opacity="1"/><stop offset="0.429" stop-color="#DDC77A" stop-opacity="1"/><stop offset="0.5" stop-color="#F3E18F" stop-opacity="1"/><stop offset="0.571" stop-color="#DDC77A" stop-opacity="0.998597"/><stop offset="0.643" stop-color="#C8AD65" stop-opacity="0.998673"/><stop offset="0.714" stop-color="#B29551" stop-opacity="1"/><stop offset="0.786" stop-color="#9C7D3F" stop-opacity="1"/><stop offset="0.857" stop-color="#86652D" stop-opacity="1"/><stop offset="0.929" stop-color="#704F1B" stop-opacity="1"/><stop offset="1" stop-color="#5B3A0A" stop-opacity="1"/></linearGradient><linearGradient x1="708.438" y1="258.181" x2="770.299" y2="127.863" gradientUnits="userSpaceOnUse" spreadMethod="pad" id="fill12"><stop offset="0" stop-color="#5B3A0A" stop-opacity="1"/><stop offset="0.071" stop-color="#704F1B" stop-opacity="1"/><stop offset="0.143" stop-color="#86652D" stop-opacity="1"/><stop offset="0.214" stop-color="#9C7D3F" stop-opacity="1"/><stop offset="0.286" stop-color="#B29551" stop-opacity="1"/><stop offset="0.357" stop-color="#C8AD65" stop-opacity="1"/><stop offset="0.429" stop-color="#DDC77A" stop-opacity="1"/><stop offset="0.5" stop-color="#F3E18F" stop-opacity="1"/><stop offset="0.571" stop-color="#DDC77A" stop-opacity="0.998597"/><stop offset="0.643" stop-color="#C8AD65" stop-opacity="0.998673"/><stop offset="0.714" stop-color="#B29551" stop-opacity="1"/><stop offset="0.786" stop-color="#9C7D3F" stop-opacity="1"/><stop offset="0.857" stop-color="#86652D" stop-opacity="1"/><stop offset="0.929" stop-color="#704F1B" stop-opacity="1"/><stop offset="1" stop-color="#5B3A0A" stop-opacity="1"/></linearGradient><linearGradient x1="701.415" y1="105.244" x2="562.194" y2="268.012" gradientUnits="userSpaceOnUse" spreadMethod="pad" id="fill13"><stop offset="0" stop-color="#5B3A0A" stop-opacity="1"/><stop offset="0.071" stop-color="#704F1B" stop-opacity="1"/><stop offset="0.143" stop-color="#86652D" stop-opacity="1"/><stop offset="0.214" stop-color="#9C7D3F" stop-opacity="1"/><stop offset="0.286" stop-color="#B29551" stop-opacity="1"/><stop offset="0.357" stop-color="#C8AD65" stop-opacity="1"/><stop offset="0.429" stop-color="#DDC77A" stop-opacity="1"/><stop offset="0.5" stop-color="#F3E18F" stop-opacity="1"/><stop offset="0.571" stop-color="#DDC77A" stop-opacity="0.998597"/><stop offset="0.643" stop-color="#C8AD65" stop-opacity="0.998673"/><stop offset="0.714" stop-color="#B29551" stop-opacity="1"/><stop offset="0.786" stop-color="#9C7D3F" stop-opacity="1"/><stop offset="0.857" stop-color="#86652D" stop-opacity="1"/><stop offset="0.929" stop-color="#704F1B" stop-opacity="1"/><stop offset="1" stop-color="#5B3A0A" stop-opacity="1"/></linearGradient><linearGradient x1="470.964" y1="353.861" x2="811.074" y2="20.1973" gradientUnits="userSpaceOnUse" spreadMethod="pad" id="fill14"><stop offset="0" stop-color="#5B3A0A" stop-opacity="1"/><stop offset="0.071" stop-color="#704F1B" stop-opacity="1"/><stop offset="0.143" stop-color="#86652D" stop-opacity="1"/><stop offset="0.214" stop-color="#9C7D3F" stop-opacity="1"/><stop offset="0.286" stop-color="#B29551" stop-opacity="1"/><stop offset="0.357" stop-color="#C8AD65" stop-opacity="1"/><stop offset="0.429" stop-color="#DDC77A" stop-opacity="1"/><stop offset="0.5" stop-color="#F3E18F" stop-opacity="1"/><stop offset="0.571" stop-color="#DDC77A" stop-opacity="0.998597"/><stop offset="0.643" stop-color="#C8AD65" stop-opacity="0.998673"/><stop offset="0.714" stop-color="#B29551" stop-opacity="1"/><stop offset="0.786" stop-color="#9C7D3F" stop-opacity="1"/><stop offset="0.857" stop-color="#86652D" stop-opacity="1"/><stop offset="0.929" stop-color="#704F1B" stop-opacity="1"/><stop offset="1" stop-color="#5B3A0A" stop-opacity="1"/></linearGradient></defs><g clip-path="url(#clip0)" transform="translate(-484 -32)"><g clip-path="url(#clip1)"><g clip-path="url(#clip2)"><g clip-path="url(#clip3)"><g clip-path="url(#clip4)"><path d="M485 32.0001 795.226 32.0001 795.226 342.236 485 342.236Z" fill="#100404" fill-rule="nonzero" fill-opacity="1"/><path d="M734.304 92.4296C718.362 93.0148 694.948 101.124 698.428 94.8417 694.794 96.5869 688.173 99.687 682.928 101.555 682.292 103.208 681.501 104.809 680.618 106.369L680.618 106.369C679.581 108.227 678.36 110.034 677.097 111.799 678.042 113.77 678.997 115.721 679.9 117.784L679.92 117.825 682.569 124.292 682.753 124.774C686.757 120.894 691.089 117.363 695.698 114.232 702.39 109.675 709.134 105.137 716.556 101.925 707.594 108.33 699.434 116.049 691.787 123.984 688.471 127.422 685.361 131.056 682.517 134.895 682.692 135.255 682.866 135.634 682.989 135.922 683.626 137.503 684.139 138.868 683.954 138.498L684.026 138.642 684.252 139.155 685.217 139.053C687.188 138.858 689.169 138.765 691.16 138.786 697.001 138.847 703.129 139.946 708.631 142.789 709.802 137.082 717.777 124.086 719.42 120.75 711.382 124.579 727.97 99.4201 734.304 92.4296Z" fill="url(#fill5)" fill-rule="nonzero"/><path d="M714.934 223.605C712.963 224.549 711.013 225.504 708.949 226.397L708.908 226.417 702.441 229.066 701.959 229.261C705.839 233.254 709.37 237.585 712.501 242.205 717.059 248.887 721.586 255.631 724.798 263.053 718.403 254.092 710.684 245.941 702.739 238.283 700.306 235.933 697.761 233.695 695.123 231.581 693.932 231.94 692.741 232.279 691.54 232.587L688.029 233.49 687.937 238.088C687.824 243.796 686.716 249.77 683.944 255.139 689.651 256.309 702.647 264.284 705.983 265.917 702.154 257.889 727.313 274.477 734.304 280.801 733.719 264.859 725.609 241.445 731.892 244.935 730.146 241.291 727.046 234.67 725.178 229.425 723.526 228.799 721.924 228.008 720.364 227.126 718.506 226.079 716.699 224.857 714.934 223.605Z" fill="url(#fill6)" fill-rule="nonzero"/><path d="M571.584 230.472C570.394 236.19 562.449 249.144 560.817 252.48 568.844 248.651 552.256 273.81 545.932 280.801 561.874 280.216 585.288 272.106 581.798 278.399 585.432 276.654 592.063 273.543 597.298 271.685 597.935 270.023 598.725 268.421 599.608 266.861L599.608 266.861C600.655 265.013 601.866 263.196 603.128 261.431 602.184 259.47 601.23 257.51 600.336 255.447L600.316 255.405 597.924 249.585 597.473 248.477C593.469 252.357 589.148 255.878 584.529 258.998 577.836 263.556 571.102 268.093 563.67 271.306 572.631 264.9 580.792 257.181 588.45 249.247 590.185 247.45 591.847 245.602 593.459 243.693 589.302 241.045 585.832 238.263 582.681 236.559L582.558 236.487 582.393 236.395 582.383 236.385C581.264 235.717 580.217 234.937 579.252 234.065L572.755 231.047C572.354 230.862 571.964 230.667 571.584 230.472Z" fill="url(#fill7)" fill-rule="nonzero"/><path d="M545.932 92.4296C546.518 108.371 554.627 131.785 548.335 128.305 550.08 131.939 553.19 138.56 555.058 143.805 556.711 144.442 558.312 145.232 559.872 146.105L559.872 146.105C561.72 147.152 563.527 148.373 565.302 149.636 567.263 148.681 569.223 147.737 571.287 146.834L571.328 146.813 578.267 143.97C574.387 139.977 570.866 135.645 567.735 131.036 563.178 124.343 558.641 117.599 555.427 110.178 561.833 119.139 569.552 127.299 577.487 134.947 579.796 137.174 582.209 139.309 584.703 141.331L590.616 138.909 590.431 139.155C590.688 139.001 590.954 138.858 591.129 138.724L591.427 138.488 591.827 138.252C591.95 138.18 592.094 138.067 592.227 137.975L592.299 134.957C592.433 129.311 593.541 123.409 596.292 118.092 590.575 116.922 577.59 108.956 574.253 107.314 578.082 115.341 552.923 98.7527 545.932 92.4296Z" fill="url(#fill8)" fill-rule="nonzero"/><path d="M683.831 238.006C680.844 242.667 676.831 248.107 669.953 251.32L669.83 251.371C668.999 251.741 668.167 252.049 667.336 252.316 666.833 253.352 666.299 254.369 665.734 255.364 665.293 254.584 664.841 253.825 664.4 253.055 659.822 253.927 655.387 253.506 651.579 252.736L651.569 252.757C651.538 252.747 651.497 252.736 651.456 252.736 654.576 256.278 657.748 259.799 660.735 263.268 659.411 265.239 658.087 267.169 656.886 268.986 655.962 270.392 655.1 271.747 654.361 273.03 653.663 274.221 653.047 275.473 652.534 276.757 651.692 278.686 651.148 280.452 650.85 282.053 650.552 283.5 650.481 284.989 650.614 286.467 650.758 287.812 651.096 288.951 651.538 289.916 651.938 290.809 652.482 291.641 653.149 292.369 654.125 293.457 655.336 294.299 656.681 294.864 657.882 295.367 658.405 295.367 658.405 295.367 658.405 295.367 657.953 295.11 657.071 294.258 656.157 293.396 655.428 292.349 654.935 291.189 654.648 290.511 654.463 289.793 654.381 289.054 654.299 288.202 654.34 287.35 654.494 286.508 654.689 285.43 655.007 284.383 655.459 283.377 655.941 282.238 656.64 280.944 657.615 279.477 658.313 278.625 659.041 277.793 659.801 277.003 660.704 276.048 661.731 275.022 662.88 273.862 663.979 272.774 665.19 271.562 666.463 270.29 669.471 274.283 671.986 278.214 673.864 282.371 675.455 285.882 676.481 289.331 677.026 292.749 677.467 296.013 677.683 297.758 677.313 299.031 677.816 298.159 678.031 296.547 678.155 292.667 678.155 288.869 677.724 285.081 676.892 281.376 675.691 276.038 673.72 270.834 671.113 265.434 673.577 262.755 676.061 259.83 678.155 256.76 682.148 251.371 683.698 244.617 683.831 238.006ZM601.722 248.025 604.094 253.804C605.284 256.524 606.547 259.214 607.871 261.872 607.522 262.345 607.152 262.806 606.814 263.279 605.479 265.126 604.237 267.015 603.18 268.873 602.143 270.721 601.271 272.568 600.696 274.375 600.234 275.935 599.916 277.537 599.762 279.158 599.967 280.4 599.597 287.401 599.597 287.401 599.751 290.388 600.07 293.324 600.429 295.89 601.763 305.149 603.016 308.229 603.016 308.229 603.016 308.229 602.718 304.923 603.128 295.747 603.262 292.513 603.56 288.777 604.206 285.307 604.504 283.644 604.894 282.053 605.356 280.626 605.828 279.21 606.362 277.988 606.968 277.054 607.645 275.925 608.559 274.673 609.698 273.307 610.489 272.363 611.381 271.398 612.315 270.413 621.523 287.339 626.163 292.77 626.163 292.77 626.163 292.77 622.385 286.395 614.913 267.816 617.582 265.249 620.353 262.796 623.227 260.456 624.377 259.522 625.537 258.587 626.707 257.674 627.805 265.824 631.398 274.18 633.389 282.341 637.218 297.974 639.682 301.803 643.418 311.554 646.067 318.463 644.537 324.611 642.505 331.55 641.355 335.451 643.449 337.473 643.952 338.048 643.439 337.442 643.521 333.994 644.742 331.715 646.559 328.307 649.916 322.764 651.261 312.694 652.328 304.708 649.279 297.522 647.658 280.873 646.744 271.121 646.169 261.349 645.933 251.556 643.408 250.92 640.657 250.037 637.855 248.702L629.694 249.205C626.358 249.411 622.242 250.242 617.54 250.499 616.914 251.176 616.288 251.854 615.672 252.542 614.122 254.245 612.603 255.98 611.135 257.756 610.242 255.221 609.431 252.675 608.682 250.098L608.672 250.098 608.476 250.057 608.589 250.068C606.239 249.616 603.939 248.928 601.733 248.025Z" fill="url(#fill9)" fill-rule="nonzero"/><path d="M539.332 146.095C536.489 146.248 533.656 146.526 530.843 146.936 521.584 148.26 518.505 149.523 518.505 149.523 518.505 149.523 521.81 149.225 530.976 149.626 534.22 149.769 537.957 150.067 541.416 150.703 543.089 151.011 544.68 151.391 546.107 151.863 547.524 152.325 548.735 152.869 549.679 153.465 550.808 154.142 552.05 155.056 553.426 156.205 554.36 156.985 555.335 157.879 556.31 158.823 539.394 168.02 533.964 172.67 533.964 172.67 533.964 172.67 540.328 168.883 558.918 161.41 561.484 164.089 563.937 166.86 566.278 169.724 567.212 170.874 568.146 172.044 569.049 173.214 560.909 174.302 552.553 177.895 544.393 179.897 528.759 183.715 524.931 186.179 515.179 189.915 508.271 192.574 502.122 191.034 495.183 189.002 491.282 187.862 489.26 189.946 488.685 190.459 489.291 189.936 492.729 190.018 495.019 191.24 498.426 193.056 503.97 196.413 514.039 197.758 522.026 198.825 529.211 195.777 545.861 194.165 555.304 193.272 564.779 192.707 574.264 192.461 574.253 192.297 574.253 192.132 574.253 191.958L574.243 191.845 574.243 191.393 574.264 191.147C574.233 191.691 572.837 185.707 576.06 180.195 577.754 177.3 580.402 175.822 583.184 174.939L582.671 174.497 582.27 173.686C580.7 171.336 579.529 168.841 578.657 166.296 577.189 164.91 575.701 163.535 574.192 162.169 572.488 160.619 570.753 159.11 568.977 157.632 571.503 156.749 574.048 155.928 576.614 155.189 576.584 154.573 576.553 153.968 576.542 153.362L576.542 153.352 576.512 150.467 578.021 148.507 572.929 150.601C570.209 151.792 567.509 153.054 564.851 154.378 564.389 154.019 563.927 153.66 563.455 153.321 561.607 151.976 559.718 150.734 557.85 149.687 556.013 148.65 554.155 147.778 552.358 147.203 550.798 146.741 549.197 146.423 547.575 146.259 546.333 146.474 539.332 146.095 539.332 146.095ZM541.375 197.06C541.005 197.06 540.636 197.08 540.266 197.121 538.921 197.265 537.782 197.593 536.817 198.035 535.914 198.446 535.093 198.99 534.364 199.646 533.276 200.622 532.424 201.833 531.87 203.178 531.367 204.389 531.367 204.912 531.367 204.912 531.367 204.912 531.623 204.45 532.475 203.568 533.337 202.654 534.384 201.925 535.534 201.433 536.222 201.155 536.94 200.971 537.679 200.888 538.531 200.807 539.384 200.837 540.225 200.991 541.303 201.186 542.35 201.515 543.346 201.956 544.485 202.449 545.789 203.147 547.257 204.112 547.955 204.676 548.755 205.385 549.73 206.308 550.675 207.212 551.712 208.228 552.872 209.388 553.96 210.476 555.171 211.697 556.444 212.96 552.451 215.978 548.519 218.483 544.362 220.361 540.841 221.952 537.402 222.979 533.974 223.533 530.72 223.964 528.965 224.179 527.702 223.81 528.575 224.323 530.186 224.529 534.066 224.662 537.864 224.652 541.652 224.231 545.358 223.389 550.685 222.198 555.889 220.217 561.299 217.62 563.978 220.084 566.893 222.558 569.973 224.662 571.379 225.699 572.888 226.592 574.479 227.321 573.165 224.169 572.816 220.7 573.463 217.353 573.607 216.091 573.699 214.808 573.802 213.535 572.981 213.124 572.17 212.693 571.369 212.241 572.262 211.728 573.155 211.205 574.038 210.691 574.315 206.36 574.428 202.007 574.376 197.624 570.712 200.858 567.058 204.143 563.455 207.242 561.494 205.908 559.564 204.594 557.747 203.393 556.341 202.459 554.986 201.607 553.703 200.868 552.502 200.16 551.26 199.554 549.977 199.041 548.037 198.189 546.282 197.645 544.68 197.347 543.592 197.132 542.484 197.029 541.375 197.06Z" fill="url(#fill10)" fill-rule="nonzero"/><path d="M636.274 35.1822C636.787 35.7878 636.715 39.2368 635.494 41.5259 633.677 44.9339 630.32 50.4769 628.976 60.5365 627.908 68.5226 630.957 75.708 632.568 92.3679 633.564 102.9 634.149 113.462 634.344 124.046 636.069 124.651 637.547 125.103 638.44 125.123L638.686 125.123 639.148 125.164 639.271 125.175C645.656 125.924 652.143 126.478 658.682 126.991 660.684 124.918 662.634 122.824 664.554 120.689 666.104 118.985 667.623 117.25 669.101 115.485 670.559 119.632 671.832 123.85 672.909 128.121 673.31 128.152 673.7 128.182 674.1 128.213L674.11 128.213 675.927 128.367 677.528 129.28 677.528 129.291C679.078 130.184 680.197 131.313 681.049 132.432 680.423 130.399 679.715 128.346 678.945 126.314L678.75 125.811 676.133 119.426C674.942 116.706 673.679 114.017 672.355 111.358 672.714 110.886 673.074 110.424 673.412 109.952 674.747 108.104 675.999 106.226 677.046 104.357 678.083 102.51 678.955 100.662 679.53 98.8554 679.992 97.2952 680.31 95.6938 680.475 94.0821 680.259 92.8298 680.628 85.8293 680.628 85.8293 680.485 82.9961 680.197 80.163 679.797 77.3504 678.473 68.0812 677.21 65.0017 677.21 65.0017 677.21 65.0017 677.508 68.3071 677.108 77.4838 676.964 80.7276 676.666 84.4537 676.03 87.9232 675.722 89.5862 675.342 91.1773 674.87 92.604 674.398 94.0207 673.864 95.2422 673.258 96.1865 672.591 97.3054 671.677 98.5577 670.528 99.923 669.748 100.867 668.844 101.832 667.91 102.818 658.713 85.901 654.063 80.471 654.063 80.471 654.063 80.471 657.84 86.8353 665.324 105.415 662.644 107.981 659.873 110.434 657.009 112.775 655.849 113.719 654.689 114.643 653.519 115.556 652.431 107.416 648.828 99.0607 646.836 90.8899 643.018 75.2564 640.554 71.4275 636.808 61.6861 634.159 54.7676 635.699 48.6189 637.731 41.6799 638.871 37.7895 636.787 35.757 636.274 35.1822ZM602.923 74.1991C602.41 75.0819 602.194 76.6831 602.071 80.5736 602.081 84.3715 602.502 88.1592 603.344 91.865 604.535 97.1924 606.516 102.397 609.113 107.796 606.65 110.475 604.165 113.401 602.071 116.48 598.109 121.818 596.559 128.5 596.405 135.049 598.879 133.438 602.071 131.775 606.147 131.159L606.157 131.159 607.05 131.036 609.452 130.687C609.749 129.332 609.503 128.018 610.057 126.673L610.119 126.54 610.139 126.488 610.273 126.211C610.56 125.636 610.94 125.051 611.392 124.466 611.638 123.758 611.926 123.029 612.254 122.27 612.932 120.771 613.681 119.303 614.492 117.866 614.831 118.472 615.19 119.067 615.539 119.662 626.563 118.502 624.059 120.278 630.772 122.773 627.035 118.461 623.125 114.181 619.491 109.962 620.815 108.001 622.139 106.061 623.34 104.245 624.264 102.838 625.126 101.483 625.865 100.2 626.563 99.0093 627.179 97.757 627.693 96.4739 628.544 94.5442 629.088 92.7784 629.386 91.1773 629.674 89.7298 629.746 88.2414 629.612 86.7736 629.468 85.4289 629.13 84.2895 628.698 83.3144 628.288 82.4213 627.744 81.5898 627.087 80.861 626.101 79.7832 624.9 78.9312 623.546 78.3666 622.344 77.8739 621.821 77.8739 621.821 77.8739 621.821 77.8739 622.283 78.1203 623.166 78.9723 624.079 79.8345 624.798 80.8816 625.301 82.0415 625.578 82.7189 625.763 83.4478 625.845 84.1766 625.927 84.9362 625.906 85.778 625.742 86.7223 625.547 87.8001 625.219 88.8472 624.777 89.8531 624.285 90.9924 623.587 92.296 622.611 93.7538 621.924 94.6056 621.185 95.4371 620.425 96.2276 619.521 97.1821 618.505 98.2189 617.345 99.3687 616.257 100.457 615.036 101.668 613.773 102.941 610.755 98.9579 608.251 95.0164 606.362 90.859 604.781 87.3485 603.744 83.8994 603.2 80.4812 602.759 77.2169 602.544 75.472 602.923 74.1991Z" fill="url(#fill11)" fill-rule="nonzero"/><path d="M691.109 142.892C689.261 142.871 687.424 142.964 685.628 143.138 687.414 148.301 689.354 153.146 691.735 157.242 691.807 157.222 691.879 157.211 691.951 157.201 693.87 156.873 695.482 156.76 696.816 156.801 697.812 156.79 698.962 156.934 700.286 157.273 701.579 157.612 702.975 158.104 704.464 158.761 705.962 159.429 707.43 160.178 708.867 160.989 705.336 163.011 701.846 165.095 698.448 167.117 700.337 170.196 702.072 174.179 702.01 178.952 706.979 174.713 711.916 170.166 716.771 165.988 718.732 167.322 720.672 168.636 722.489 169.847 723.895 170.771 725.25 171.633 726.533 172.373 727.724 173.071 728.976 173.676 730.259 174.189 732.189 175.042 733.955 175.586 735.556 175.883 737.003 176.171 738.492 176.253 739.96 176.109 741.304 175.976 742.444 175.637 743.419 175.195 744.312 174.785 745.143 174.241 745.872 173.584 746.95 172.609 747.802 171.397 748.367 170.053 748.859 168.841 748.859 168.328 748.859 168.328 748.859 168.328 748.613 168.78 747.761 169.663 746.899 170.576 745.852 171.305 744.692 171.798 744.014 172.085 743.285 172.27 742.557 172.342 741.705 172.434 740.853 172.393 740.011 172.239 738.933 172.044 737.886 171.716 736.88 171.274 735.741 170.792 734.437 170.094 732.979 169.119 732.128 168.421 731.296 167.692 730.506 166.922 729.448 165.916 728.401 164.889 727.365 163.853 726.276 162.754 725.065 161.543 723.792 160.27 727.775 157.263 731.717 154.748 735.874 152.869 739.385 151.278 742.834 150.252 746.252 149.708 749.516 149.266 751.261 149.051 752.534 149.42 751.651 148.917 750.05 148.702 746.16 148.568 742.362 148.579 738.574 149.01 734.868 149.841 729.541 151.032 724.336 153.013 718.937 155.62 716.258 153.146 713.333 150.673 710.253 148.579 704.772 144.503 697.843 142.964 691.109 142.892ZM763.22 175.257C756.26 175.144 748.941 177.659 734.365 179.065 723.567 180.092 712.737 180.687 701.887 180.851 701.856 181.149 701.836 181.447 701.785 181.745L701.774 181.888 701.723 182.093 701.692 182.247 701.672 182.319C700.994 185.224 699.557 187.359 698.017 189.166 698.695 189.772 699.906 190.11 700.399 190.695 701.877 192.451 703.016 194.309 704.341 196.495L704.269 196.362 704.72 197.08 705.028 197.891 705.028 197.901C706.096 200.807 708.036 205.908 706.588 211.554 708.118 212.929 709.668 214.284 711.249 215.598 708.282 216.645 705.285 217.589 702.246 218.442 697.75 222.753 693.49 225.709 690.524 228.614 693.788 227.782 697.124 226.684 700.419 225.452L700.922 225.257 707.307 222.64C710.027 221.439 712.717 220.187 715.375 218.862 715.847 219.211 716.309 219.571 716.781 219.92 718.629 221.254 720.508 222.496 722.376 223.543 724.224 224.59 726.071 225.452 727.878 226.037 729.438 226.499 731.039 226.818 732.651 226.972 733.903 226.766 740.904 227.136 740.904 227.136 743.737 226.982 746.57 226.705 749.383 226.294 758.652 224.97 761.731 223.718 761.731 223.718 761.731 223.718 758.426 224.005 749.249 223.605 746.006 223.471 742.28 223.163 738.81 222.527 737.147 222.229 735.556 221.839 734.129 221.377 732.713 220.905 731.491 220.371 730.547 219.766 729.428 219.088 728.176 218.175 726.81 217.025 725.866 216.245 724.901 215.352 723.916 214.418 740.832 205.21 746.262 200.57 746.262 200.57 746.262 200.57 739.898 204.348 721.319 211.821 718.752 209.152 716.299 206.37 713.959 203.506 713.014 202.356 712.091 201.196 711.177 200.016 719.327 198.928 727.673 195.335 735.833 193.344 751.477 189.515 755.295 187.051 765.047 183.315 771.966 180.667 778.114 182.196 785.053 184.229 788.944 185.368 790.976 183.284 791.551 182.771 790.945 183.295 787.496 183.212 785.207 181.991 781.799 180.174 776.256 176.817 766.197 175.473 765.211 175.339 764.216 175.267 763.22 175.257Z" fill="url(#fill12)" fill-rule="nonzero"/><path d="M620.25 125.832 620.25 125.852C618.043 125.832 616.555 127.392 615.795 128.932L615.775 128.993 615.744 129.044C613.383 134.7 614.399 141.126 616.586 146.269L617.448 148.322 619.419 147.295C622.96 145.468 626.091 143.467 629.243 143.148 636.346 143.036 643.5 143.908 649.978 146.669 656.968 149.975 661.782 157.53 667.13 164.469L667.182 164.53 667.233 164.592C671.39 169.211 672.93 176.201 672.725 182.935L672.725 183.028 672.725 183.11C672.961 187.431 671.318 191.65 668.721 195.007L665.149 199.646 670.846 198.261C676.543 196.875 681.84 194.165 686.634 190.819L686.705 190.778 686.777 190.726C688.101 189.628 689.918 188.529 691.643 187.072 693.367 185.604 695.04 183.643 695.677 180.913L695.698 180.841 695.708 180.769C696.796 173.984 692.095 168.944 689.456 164.951L689.426 164.889 689.374 164.828C684.375 158.279 681.327 149.975 678.596 141.619L678.545 141.465 678.473 141.321C678.114 140.623 677.785 139.494 677.282 138.252 676.779 137.01 676.02 135.522 674.449 134.618L674.049 134.392 673.587 134.351C661.854 133.345 650.152 132.658 638.553 131.292L638.45 131.282 638.347 131.282C633.122 131.19 628.021 127.741 621.78 126.15 621.308 125.955 620.815 125.852 620.302 125.832 620.281 125.832 620.271 125.842 620.25 125.842L620.25 125.832ZM607.943 137.123 607.06 137.256C602.041 138.016 598.407 141.455 595.03 143.508L594.937 143.569 594.865 143.631C591.58 146.095 586.602 147.48 583.132 151.966L582.691 152.541 582.701 153.259C582.804 159.275 584.118 165.557 587.629 170.638L587.639 170.658 587.659 170.669C589.014 172.568 590.523 174.816 592.433 176.756 594.332 178.686 596.744 180.359 599.782 180.697L599.864 180.708 599.936 180.708C602.913 180.81 605.315 179.096 606.875 177.053 608.425 175.011 609.37 172.557 609.975 170.361L609.986 170.32 609.996 170.268C611.679 162.641 612.747 154.604 611.915 146.556L611.905 146.495 611.895 146.433C611.71 145.304 611.597 143.795 611.238 142.225 610.879 140.654 610.201 138.909 608.631 137.667ZM629.222 145.715C624.767 145.674 620.651 147.952 617.766 151.278 612.449 157.314 612.993 165.731 612.613 172.321L612.634 172.198C611.761 179.681 613.517 187.021 616.247 193.58L616.257 193.59 616.257 193.611C618.587 199.01 621.554 205.549 627.754 208.279L627.836 208.32 627.918 208.351C634.96 210.753 641.632 207.109 647.021 204.307L647.021 204.296C651.107 202.746 653.611 198.64 653.888 194.278L654.289 188.026 650.265 192.831C648.561 194.863 647.052 196.782 645.338 197.953 642.197 199.513 638.542 200.129 635.001 199.944L634.919 199.944C631.963 199.903 629.212 197.48 627.385 194.309L627.354 194.247 627.313 194.196C624.839 190.521 624.746 185.378 624.788 180.215L624.788 180.153C624.551 171.233 629.519 162.847 636.151 157.909L636.181 157.889 636.223 157.858C640.986 154.009 648.263 153.475 653.355 155.815L657.882 157.899 656.137 153.239C655.931 152.674 655.408 152.51 655.069 152.089 654.453 151.34 653.909 150.488 653.149 150.016 651.959 149.276 650.686 148.722 649.649 148.281L649.495 148.209 649.341 148.178C642.731 146.526 635.945 145.858 629.253 145.715L629.243 145.715ZM648.263 154.994C646.806 154.922 645.286 155.23 643.808 155.846 641.447 156.852 639.107 158.628 636.746 161.163L633.923 164.202 638.05 164.612C641.468 164.951 644.517 165.115 646.611 166.891L646.621 166.902 646.631 166.902C649.454 169.252 649.885 174.046 649.434 178.48L649.423 178.634 649.423 178.788C649.546 181.283 648.736 183.264 647.298 185.142 645.851 187.021 643.737 188.714 641.437 190.223L636.921 193.21 642.269 193.97C645.646 194.452 648.253 192.471 650.173 191.188 657.153 186.497 659.524 177.31 658.795 169.283L658.795 169.211 658.774 169.149C657.717 162.128 655.161 157.181 650.809 155.518 649.998 155.21 649.136 155.025 648.263 154.994ZM659.257 163.627 660.15 168.77C660.581 171.233 661.043 173.512 660.982 175.647 660.212 183.295 659.627 190.952 656.948 197.665L656.937 197.696 656.927 197.727C655.161 202.613 650.84 205.682 646.303 208.433 639.169 212.631 630.69 215.208 623.432 211.933L623.422 211.933C616.114 208.495 611.525 200.108 607.922 191.804L605.633 186.507 604.063 192.061C602.749 196.731 602.143 201.771 602.964 206.76 604.114 213.771 606.608 221.295 611.874 226.695 613.66 228.85 616.073 229.969 618.423 230.349 620.805 230.739 623.176 230.482 625.26 230.071L625.373 230.051 625.475 230.02C626.727 229.63 627.898 229.835 629.366 230.421 630.833 231.006 632.455 231.971 634.283 232.74L634.642 232.894 635.032 232.905C644.814 233.11 653.108 226.756 659.124 219.612 661.854 216.912 662.727 213.186 662.819 209.85L662.829 209.634 662.788 209.419C661.885 204.512 663.979 199.236 665.827 193.908 667.592 191.055 669.891 187.903 670.435 183.684L670.435 183.643 670.446 183.603C671.021 177.32 668.311 171.059 663.866 167.127L663.804 167.086 663.63 166.942ZM639.877 166.624C634.765 166.624 629.869 169.704 627.775 174.888 625.578 179.537 626.112 185.85 630.649 189.053L630.721 189.104 630.803 189.145C633.42 190.675 636.387 190.685 638.984 189.885 641.581 189.074 643.89 187.503 645.666 185.594L645.851 185.399 645.974 185.173C647.627 182.155 648.335 178.542 648.089 175.072 648.037 173.03 647.36 171.059 646.139 169.499 644.897 167.918 643.018 166.727 640.801 166.665 640.483 166.645 640.185 166.624 639.877 166.624ZM587.177 180.133C585.021 180.092 582.66 181.118 581.377 183.305 579.571 186.395 580.525 189.607 580.412 191.527L580.402 191.629 580.402 191.732C580.741 200.591 580.546 209.46 579.571 218.236 578.39 223.584 581.377 228.645 585.514 231.078L585.545 231.098 585.576 231.119C593.1 235.194 600.08 242.174 609.739 244.032L609.78 244.042 609.821 244.042C616.699 245.089 623.227 243.436 629.314 243.057L636.192 242.636 630.197 239.228C626.727 237.247 623.166 235.799 619.788 234.219 613.65 231.303 607.44 228.409 604.494 222.393 601.034 213.381 598.92 203.578 599.474 193.888L599.474 193.795C599.515 191.003 600.439 187.934 600.634 184.485L600.706 183.069 599.402 182.494C596.128 181.047 592.669 180.923 589.774 180.502L589.743 180.492 589.055 180.41C588.44 180.246 587.813 180.153 587.177 180.133ZM690.832 192.009C689.723 192.04 688.656 192.44 687.65 192.974 686.315 193.682 684.94 194.699 683.226 195.982L683.113 196.064 683.02 196.167C680.608 198.558 676.995 198.897 672.95 200.18L672.848 200.221 672.745 200.262C672.057 200.56 670.99 200.878 669.861 201.463 668.742 202.049 667.469 203.024 666.843 204.604L666.843 204.615C665.878 206.975 665.919 209.275 665.888 211.266 665.847 213.268 665.755 214.931 665.098 216.276L665.077 216.306 665.067 216.337C662.141 222.917 656.321 227.464 650.604 232.114 646.067 234.845 640.328 234.763 634.488 234.937L629.335 235.081 633.174 238.509C634.693 239.875 636.315 241.035 637.906 242.102 642.689 245.305 647.925 245.849 652.657 246.691L652.605 246.68C657.286 247.645 662.47 247.922 667.315 245.746L667.336 245.746 667.346 245.736C674.87 242.215 678.411 234.311 682.548 228.686L682.599 228.614 682.651 228.552C686.634 222.065 693.716 218.513 699.577 212.436L699.814 212.2 699.947 211.903C701.949 207.766 700.45 203.291 699.249 200.026L699.177 199.841 699.074 199.677C697.791 197.552 696.755 195.92 695.698 194.668 694.64 193.416 693.46 192.43 691.951 192.112 691.581 192.04 691.201 191.999 690.832 192.02Z" fill="url(#fill13)" fill-rule="nonzero"/><path d="M640.113 32.0104C554.555 32.0104 485 101.534 485 187.123 485 272.712 554.555 342.236 640.113 342.236 725.671 342.236 795.226 272.712 795.226 187.123 795.226 101.534 725.671 32.0104 640.113 32.0104ZM640.113 53.7719C713.887 53.7719 773.516 113.401 773.516 187.123 773.516 260.846 713.887 320.464 640.113 320.464 566.329 320.464 506.721 260.846 506.721 187.123 506.721 113.401 566.329 53.7719 640.113 53.7719Z" fill="url(#fill14)" fill-rule="nonzero"/></g></g></g></g></g></svg>